<svg width="371" height="900" viewBox="0 0 371 900" fill="none" xmlns="http://www.w3.org/2000/svg">
<g filter="url(#filter0_ii_1054_729)">
<path d="M370.893 449.999C370.893 759.83 299.003 1073.41 161.399 1073.41C97.4477 1073.41 43.4202 1005.49 5.04968 876.927C-29.3515 762.477 -48.0957 610.759 -48.0957 449.999C-48.0957 140.168 23.7939 -173.412 161.399 -173.412C225.349 -173.412 279.377 -105.491 317.747 23.072C352.149 137.743 370.893 289.24 370.893 449.999ZM18.0604 449.999C18.0604 604.584 35.9225 749.466 68.339 857.962C83.3344 908.02 100.976 948.375 119.72 974.838C134.495 995.787 149.27 1007.25 161.399 1007.25C185.435 1007.25 223.585 961.165 254.458 857.962C286.875 749.466 304.737 604.584 304.737 449.999C304.737 295.414 286.875 150.533 254.458 42.0366C239.463 -8.0215 221.821 -48.3767 203.077 -74.8391C188.302 -95.7886 173.527 -107.256 161.399 -107.256C137.362 -107.256 99.2118 -61.1669 68.339 42.0366C35.9225 150.753 18.0604 295.635 18.0604 449.999Z" fill="url(#paint0_radial_1054_729)"/>
<path d="M370.893 449.999C370.893 759.83 299.003 1073.41 161.399 1073.41C97.4477 1073.41 43.4202 1005.49 5.04968 876.927C-29.3515 762.477 -48.0957 610.759 -48.0957 449.999C-48.0957 140.168 23.7939 -173.412 161.399 -173.412C225.349 -173.412 279.377 -105.491 317.747 23.072C352.149 137.743 370.893 289.24 370.893 449.999ZM18.0604 449.999C18.0604 604.584 35.9225 749.466 68.339 857.962C83.3344 908.02 100.976 948.375 119.72 974.838C134.495 995.787 149.27 1007.25 161.399 1007.25C185.435 1007.25 223.585 961.165 254.458 857.962C286.875 749.466 304.737 604.584 304.737 449.999C304.737 295.414 286.875 150.533 254.458 42.0366C239.463 -8.0215 221.821 -48.3767 203.077 -74.8391C188.302 -95.7886 173.527 -107.256 161.399 -107.256C137.362 -107.256 99.2118 -61.1669 68.339 42.0366C35.9225 150.753 18.0604 295.635 18.0604 449.999Z" fill="#1F2E7E" fill-opacity="0.2"/>
</g>
<defs>
<filter id="filter0_ii_1054_729" x="-85.6961" y="-173.412" width="510.576" height="1312.62" filterUnits="userSpaceOnUse" color-interpolation-filters="sRGB">
<feFlood flood-opacity="0" result="BackgroundImageFix"/>
<feBlend mode="normal" in="SourceGraphic" in2="BackgroundImageFix" result="shape"/>
<feColorMatrix in="SourceAlpha" type="matrix" values="0 0 0 0 0 0 0 0 0 0 0 0 0 0 0 0 0 0 127 0" result="hardAlpha"/>
<feOffset dx="-37.6004" dy="65.8006"/>
<feGaussianBlur stdDeviation="79.9008"/>
<feComposite in2="hardAlpha" operator="arithmetic" k2="-1" k3="1"/>
<feColorMatrix type="matrix" values="0 0 0 0 1 0 0 0 0 1 0 0 0 0 1 0 0 0 0.87 0"/>
<feBlend mode="lighten" in2="shape" result="effect1_innerShadow_1054_729"/>
<feColorMatrix in="SourceAlpha" type="matrix" values="0 0 0 0 0 0 0 0 0 0 0 0 0 0 0 0 0 0 127 0" result="hardAlpha"/>
<feOffset dx="53.987" dy="31.4924"/>
<feGaussianBlur stdDeviation="31.4924"/>
<feComposite in2="hardAlpha" operator="arithmetic" k2="-1" k3="1"/>
<feColorMatrix type="matrix" values="0 0 0 0 0.168627 0 0 0 0 0.180392 0 0 0 0 0.239216 0 0 0 0.9 0"/>
<feBlend mode="multiply" in2="effect1_innerShadow_1054_729" result="effect2_innerShadow_1054_729"/>
</filter>
<radialGradient id="paint0_radial_1054_729" cx="0" cy="0" r="1" gradientUnits="userSpaceOnUse" gradientTransform="translate(-82.2919 650.889) rotate(-8.24435) scale(150.79 1145.27)">
<stop stop-color="#949494"/>
<stop offset="0.635171" stop-color="#181818"/>
<stop offset="1" stop-color="#1D1D1D"/>
</radialGradient>
</defs>
</svg>
