<svg width="360" height="900" viewBox="0 0 360 900" fill="none" xmlns="http://www.w3.org/2000/svg">
<g opacity="0.8" filter="url(#filter0_ii_1054_697)">
<path d="M359.506 450C359.506 583.856 343.849 710.435 315.182 805.92C292.468 882.22 250.349 973.074 180.003 973.074C109.436 973.074 67.5372 882.22 44.8236 805.92C16.3765 710.435 0.499006 584.076 0.499001 450C0.498995 315.924 16.1559 189.566 44.8236 94.0803C67.5372 17.7803 109.657 -73.0742 180.003 -73.0742C250.569 -73.0742 292.468 17.7803 315.182 94.0802C343.629 189.786 359.506 316.144 359.506 450ZM66.6551 450C66.6551 577.681 81.43 697.424 108.113 786.955C136.34 881.779 167.433 906.918 180.003 906.918C192.572 906.918 223.445 881.779 251.892 786.955C278.575 697.424 293.35 577.681 293.35 450C293.35 322.319 278.575 202.576 251.892 113.045C223.445 18.2213 192.572 -6.91804 180.003 -6.91804C167.433 -6.91804 136.56 18.2213 108.113 113.045C81.43 202.797 66.6551 322.319 66.6551 450Z" fill="url(#paint0_radial_1054_697)"/>
<path d="M359.506 450C359.506 583.856 343.849 710.435 315.182 805.92C292.468 882.22 250.349 973.074 180.003 973.074C109.436 973.074 67.5372 882.22 44.8236 805.92C16.3765 710.435 0.499006 584.076 0.499001 450C0.498995 315.924 16.1559 189.566 44.8236 94.0803C67.5372 17.7803 109.657 -73.0742 180.003 -73.0742C250.569 -73.0742 292.468 17.7803 315.182 94.0802C343.629 189.786 359.506 316.144 359.506 450ZM66.6551 450C66.6551 577.681 81.43 697.424 108.113 786.955C136.34 881.779 167.433 906.918 180.003 906.918C192.572 906.918 223.445 881.779 251.892 786.955C278.575 697.424 293.35 577.681 293.35 450C293.35 322.319 278.575 202.576 251.892 113.045C223.445 18.2213 192.572 -6.91804 180.003 -6.91804C167.433 -6.91804 136.56 18.2213 108.113 113.045C81.43 202.797 66.6551 322.319 66.6551 450Z" fill="#1F2E7E" fill-opacity="0.2"/>
</g>
<defs>
<filter id="filter0_ii_1054_697" x="-37.1013" y="-73.0742" width="450.594" height="1111.95" filterUnits="userSpaceOnUse" color-interpolation-filters="sRGB">
<feFlood flood-opacity="0" result="BackgroundImageFix"/>
<feBlend mode="normal" in="SourceGraphic" in2="BackgroundImageFix" result="shape"/>
<feColorMatrix in="SourceAlpha" type="matrix" values="0 0 0 0 0 0 0 0 0 0 0 0 0 0 0 0 0 0 127 0" result="hardAlpha"/>
<feOffset dx="-37.6004" dy="65.8006"/>
<feGaussianBlur stdDeviation="79.9008"/>
<feComposite in2="hardAlpha" operator="arithmetic" k2="-1" k3="1"/>
<feColorMatrix type="matrix" values="0 0 0 0 1 0 0 0 0 1 0 0 0 0 1 0 0 0 0.87 0"/>
<feBlend mode="lighten" in2="shape" result="effect1_innerShadow_1054_697"/>
<feColorMatrix in="SourceAlpha" type="matrix" values="0 0 0 0 0 0 0 0 0 0 0 0 0 0 0 0 0 0 127 0" result="hardAlpha"/>
<feOffset dx="53.987" dy="31.4924"/>
<feGaussianBlur stdDeviation="31.4924"/>
<feComposite in2="hardAlpha" operator="arithmetic" k2="-1" k3="1"/>
<feColorMatrix type="matrix" values="0 0 0 0 0.168627 0 0 0 0 0.180392 0 0 0 0 0.239216 0 0 0 0.9 0"/>
<feBlend mode="multiply" in2="effect1_innerShadow_1054_697" result="effect2_innerShadow_1054_697"/>
</filter>
<radialGradient id="paint0_radial_1054_697" cx="0" cy="0" r="1" gradientUnits="userSpaceOnUse" gradientTransform="translate(-28.8017 618.557) rotate(-8.07546) scale(129.148 961.35)">
<stop stop-color="#949494"/>
<stop offset="0.635171" stop-color="#181818"/>
<stop offset="1" stop-color="#1D1D1D"/>
</radialGradient>
</defs>
</svg>
